<?xml version="1.0" standalone="no"?>
<!DOCTYPE svg PUBLIC "-//W3C//DTD SVG 1.0//EN" "http://www.w3.org/TR/2001/REC-SVG-20010904/DTD/svg10.dtd">
<svg xmlns="http://www.w3.org/2000/svg" xmlns:xlink="http://www.w3.org/1999/xlink" id="body_1" width="30" height="34">

<g transform="matrix(0.65217394 0 0 0.6415094 0 0)">
	<g transform="matrix(0.010672854 0 -0 -0.010663986 0 52.999996)">
	</g>
    <path transform="matrix(0.010672854 0 -0 -0.010663986 0 52.999996)"  d="M2020 4947C 1990 4934 1922 4901 1870 4874L1870 4874L1775 4825L1585 4825C 1411 4825 1390 4823 1339 4802C 1261 4771 1206 4725 1125 4623C 1020 4491 1004 4478 909 4446C 791 4405 677 4347 635 4305C 583 4253 544 4166 506 4019L506 4019L471 3889L355 3769C 176 3584 150 3509 188 3278C 200 3204 210 3130 210 3113C 210 3096 192 3038 171 2984C 109 2827 97 2776 102 2694C 108 2610 146 2519 228 2398C 300 2290 300 2293 310 2133C 320 1976 335 1913 375 1844C 411 1782 450 1749 578 1667C 641 1627 696 1588 701 1578C 710 1561 701 1545 539 1323C 296 989 144 726 104 570C 74 452 100 340 169 293C 227 254 295 245 391 265C 468 280 520 300 810 422C 888 455 917 463 976 464C 1042 465 1050 463 1106 426C 1177 378 1343 219 1452 92L1452 92L1532 0L1695 0L1859 0L1889 63C 1905 97 1935 175 1955 235C 2028 448 2123 620 2169 620C 2212 620 2304 452 2380 235C 2403 169 2434 90 2449 60L2449 60L2476 5L2642 2L2808 0L2892 97C 2993 213 3148 367 3206 409C 3282 463 3309 473 3371 467C 3425 462 3467 447 3753 326C 3971 234 4111 231 4192 317C 4231 358 4243 396 4243 480C 4242 540 4236 571 4210 640C 4144 811 3971 1094 3750 1390C 3695 1464 3645 1535 3638 1547C 3623 1577 3635 1590 3734 1651C 3971 1796 4013 1866 4029 2150L4029 2150L4037 2287L4102 2386C 4251 2613 4268 2699 4201 2890C 4185 2937 4162 2997 4151 3023C 4126 3081 4125 3130 4146 3252C 4155 3307 4160 3381 4158 3435C 4153 3566 4121 3627 3976 3778L3976 3778L3864 3895L3836 4000C 3762 4284 3700 4352 3431 4445C 3336 4478 3320 4492 3215 4623C 3134 4725 3079 4771 3001 4802C 2950 4823 2929 4825 2755 4825L2755 4825L2565 4825L2425 4895L2285 4965L2180 4968C 2089 4970 2068 4967 2020 4947zM2350 4817L2499 4740L2682 4746C 2934 4755 2936 4754 3111 4534L3111 4534L3199 4423L3307 4385C 3458 4333 3533 4295 3568 4256C 3605 4214 3630 4147 3671 3988L3671 3988L3701 3865L3825 3740C 4005 3558 4009 3545 3964 3284L3964 3284L3939 3133L3976 3044C 4065 2829 4079 2747 4040 2661C 4029 2637 3984 2565 3941 2500L3941 2500L3863 2384L3852 2209C 3845 2089 3837 2022 3825 1992C 3802 1936 3739 1881 3598 1795C 3496 1733 3480 1719 3455 1674C 3436 1639 3429 1615 3433 1599C 3437 1586 3481 1521 3531 1455C 3854 1031 4055 691 4075 533C 4081 493 4078 480 4061 458C 4014 399 3930 415 3649 535C 3353 661 3279 675 3176 620C 3058 559 2911 425 2738 224C 2650 121 2610 93 2566 104C 2531 113 2507 158 2449 326C 2319 704 2200 851 2066 800C 1978 767 1869 580 1780 305C 1699 56 1656 42 1509 217C 1349 408 1172 568 1056 627C 961 675 861 657 600 542C 420 463 318 430 255 430C 209 430 199 434 180 458C 162 481 159 493 165 534C 185 689 364 995 684 1424C 753 1516 810 1601 810 1611C 810 1622 798 1651 784 1678C 761 1719 742 1735 628 1805C 479 1897 419 1955 401 2026C 394 2051 387 2140 383 2224L383 2224L378 2375L289 2510C 146 2728 143 2752 238 2989L238 2989L298 3137L274 3266C 246 3423 243 3528 267 3578C 276 3599 340 3671 408 3740L408 3740L533 3865L570 4010C 591 4090 614 4171 622 4190C 658 4275 709 4309 914 4382C 974 4403 1029 4424 1036 4428C 1042 4432 1093 4491 1148 4560C 1202 4629 1266 4698 1288 4713C 1342 4751 1410 4759 1591 4748L1591 4748L1739 4738L1857 4801C 2026 4891 2053 4901 2133 4897C 2195 4895 2212 4888 2350 4817z" stroke="none" fill="#000000" fill-rule="nonzero" />
	<g transform="matrix(0.010672854 0 -0 -0.010663986 0 52.999996)">
	</g>
    <path transform="matrix(0.010672854 0 -0 -0.010663986 0 52.999996)"  d="M1945 4463C 1699 4431 1421 4320 1230 4176C 933 3953 722 3613 654 3245C 628 3107 628 2853 654 2715C 711 2409 847 2152 1070 1930C 1292 1707 1543 1574 1855 1513C 1993 1487 2271 1489 2410 1519C 2714 1584 2956 1714 3170 1929C 3385 2145 3518 2388 3582 2683C 3600 2768 3604 2818 3605 2980C 3605 3148 3602 3189 3582 3278C 3548 3429 3516 3522 3455 3645C 3235 4087 2806 4394 2317 4459C 2243 4469 2011 4472 1945 4463zM2130 3178C 2130 2702 2134 2341 2140 2306C 2156 2210 2205 2172 2326 2163C 2395 2157 2400 2156 2400 2134L2400 2134L2400 2110L1915 2110L1430 2110L1430 2135C 1430 2159 1432 2160 1496 2160C 1625 2160 1698 2199 1720 2281C 1727 2306 1730 2540 1728 2959C 1725 3582 1724 3598 1705 3620C 1656 3674 1566 3684 1473 3645C 1438 3630 1434 3630 1423 3647C 1398 3680 1363 3661 1855 3884C 1982 3942 2095 3989 2108 3989L2108 3989L2130 3990L2130 3178zM2940 3735L2940 3660L2985 3660C 3023 3660 3030 3657 3030 3640C 3030 3623 3023 3620 2985 3620L2985 3620L2940 3620L2940 3471C 2940 3350 2943 3320 2955 3310C 2968 3299 2975 3301 2993 3319C 3020 3343 3030 3346 3030 3327C 3030 3307 2979 3262 2948 3255C 2913 3246 2854 3266 2835 3293C 2826 3306 2820 3337 2820 3370C 2820 3400 2817 3469 2813 3523C 2807 3616 2806 3620 2783 3620C 2750 3620 2755 3630 2804 3667C 2827 3685 2864 3724 2886 3754C 2907 3784 2928 3809 2933 3810C 2937 3810 2940 3776 2940 3735zM2624 3659C 2644 3650 2653 3650 2665 3660C 2673 3667 2682 3671 2684 3669C 2691 3661 2698 3530 2691 3531C 2688 3531 2672 3552 2655 3578C 2620 3632 2570 3655 2543 3628C 2519 3604 2535 3577 2598 3532C 2629 3510 2668 3478 2683 3462C 2736 3406 2728 3321 2664 3271C 2634 3247 2558 3242 2515 3262C 2496 3271 2487 3271 2478 3262C 2455 3239 2450 3251 2451 3323C 2451 3383 2453 3392 2463 3375C 2508 3300 2581 3260 2610 3294C 2634 3324 2616 3353 2539 3411C 2454 3475 2434 3508 2443 3573C 2451 3632 2494 3670 2555 3670C 2579 3670 2610 3665 2624 3659zM2898 3203L3040 3197L3040 3158L3040 3120L2725 3120L2410 3120L2410 3160L2410 3199L2478 3203C 2611 3210 2758 3210 2898 3203z" stroke="none" fill="#000000" fill-rule="nonzero" />
	<g transform="matrix(0.010672854 0 -0 -0.010663986 0 52.999996)">
	</g>
    <path transform="matrix(0.010672854 0 -0 -0.010663986 0 52.999996)"  d="M741 1179C 585 942 460 747 462 744C 465 742 607 767 779 800C 951 833 1097 860 1105 860C 1112 860 1234 758 1375 634C 1517 510 1633 410 1635 412C 1642 419 1942 1212 1938 1214C 1937 1216 1867 1232 1784 1249C 1598 1287 1475 1322 1407 1357C 1339 1391 1192 1489 1108 1556C 1071 1586 1037 1610 1033 1609C 1029 1609 897 1415 741 1179z" stroke="none" fill="#000000" fill-rule="nonzero" />
	<g transform="matrix(0.010672854 0 -0 -0.010663986 0 52.999996)">
	</g>
    <path transform="matrix(0.010672854 0 -0 -0.010663986 0 52.999996)"  d="M3120 1539C 3012 1450 2918 1387 2837 1349C 2764 1315 2590 1269 2420 1239C 2357 1227 2304 1217 2303 1216C 2299 1213 2601 426 2608 418C 2612 415 2730 513 2870 636C 3026 773 3132 860 3145 860C 3156 860 3302 833 3470 801C 3638 768 3777 744 3779 746C 3783 750 3217 1610 3210 1609C 3207 1609 3167 1578 3120 1539z" stroke="none" fill="#000000" fill-rule="nonzero" />
</g>
</svg>